<svg viewBox="0 0 512 512" height="20px" xmlns="http://www.w3.org/2000/svg">
    <path d="M467 271H316c-24.813 0-45 20.187-45 45s20.187 45 45 45h151c24.813 0 45-20.187 45-45s-20.187-45-45-45zM196 151H45c-24.813 0-45 20.187-45 45s20.187 45 45 45h151c24.813 0 45-20.187 45-45s-20.187-45-45-45zM316 241c24.813 0 45-20.187 45-45V45c0-24.813-20.187-45-45-45s-45 20.187-45 45v151c0 24.813 20.187 45 45 45zM196 271c-24.813 0-45 20.187-45 45v151c0 24.813 20.187 45 45 45s45-20.187 45-45V316c0-24.813-20.187-45-45-45zM407 241h45c33.084 0 60-26.916 60-60s-26.916-60-60-60-60 26.916-60 60v45c0 8.284 6.716 15 15 15zM105 271H60c-33.084 0-60 26.916-60 60s26.916 60 60 60 60-26.916 60-60v-45c0-8.284-6.716-15-15-15zM181 0c-33.084 0-60 26.916-60 60s26.916 60 60 60h45c8.284 0 15-6.716 15-15V60c0-33.084-26.916-60-60-60zM331 392h-45c-8.284 0-15 6.716-15 15v45c0 33.084 26.916 60 60 60s60-26.916 60-60-26.916-60-60-60z"/>
</svg>
