<svg xmlns="http://www.w3.org/2000/svg" xmlns:xlink="http://www.w3.org/1999/xlink" width="828" height="346" viewBox="0 0 828 346">
  <defs>
    <linearGradient id="linear-gradient" x1="1.025" y1="1" x2="0.034" y2="1" gradientUnits="objectBoundingBox">
      <stop offset="0"/>
      <stop offset="1" stop-opacity="0"/>
    </linearGradient>
    <clipPath id="clip-Web_1366_6">
      <rect width="828" height="346"/>
    </clipPath>
  </defs>
  <g id="Web_1366_6" data-name="Web 1366 – 6" clip-path="url(#clip-Web_1366_6)">
    <rect width="828" height="346" fill="#fff"/>
    <g id="Elipse_6" data-name="Elipse 6" transform="translate(683 138)" fill="#fff" stroke="#000" stroke-width="2">
      <circle cx="37" cy="37" r="37" stroke="none"/>
      <circle cx="37" cy="37" r="36" fill="none"/>
    </g>
    <g id="Grupo_32" data-name="Grupo 32" transform="translate(-148 -57)">
      <g id="Rectángulo_21" data-name="Rectángulo 21" transform="translate(416 242)" fill="#fff" stroke="#24ffb4" stroke-width="5">
        <rect width="70" height="70" rx="10" stroke="none"/>
        <rect x="2.5" y="2.5" width="65" height="65" rx="7.5" fill="none"/>
      </g>
      <path id="Trazado_34" data-name="Trazado 34" d="M2.584.19A1.7,1.7,0,0,0,4.275-1.5,1.7,1.7,0,0,0,2.584-3.192,1.7,1.7,0,0,0,.893-1.5,1.7,1.7,0,0,0,2.584.19ZM18.468-10.431a3.982,3.982,0,0,0-3.306,1.539,3.616,3.616,0,0,0-3.1-1.539A3.736,3.736,0,0,0,9.006-9.025l-.038-1.216H6.479V0H9.063V-6.023a2.026,2.026,0,0,1,2.09-2.2,2.031,2.031,0,0,1,2.109,2.2V0h2.584V-6.023a2.026,2.026,0,0,1,2.09-2.2,2.031,2.031,0,0,1,2.109,2.2V0h2.584V-6.441A3.857,3.857,0,0,0,18.468-10.431ZM32.851-14.82v6.061a3.9,3.9,0,0,0-3.4-1.672c-2.774,0-4.9,2.147-4.9,5.358,0,3.154,2.128,5.263,4.9,5.263a3.9,3.9,0,0,0,3.439-1.729L32.946,0h2.489V-14.82ZM30.039-2.033a2.79,2.79,0,0,1-2.812-3.078,2.812,2.812,0,0,1,2.812-3.116,2.817,2.817,0,0,1,2.812,3.1A2.807,2.807,0,0,1,30.039-2.033Z" transform="translate(426 298)"/>
    </g>
    <g id="Grupo_39" data-name="Grupo 39" transform="translate(-148 -147)">
      <g id="Rectángulo_21-2" data-name="Rectángulo 21" transform="translate(416 242)" fill="#fff" stroke="#24ffb4" stroke-width="5">
        <rect width="70" height="70" rx="10" stroke="none"/>
        <rect x="2.5" y="2.5" width="65" height="65" rx="7.5" fill="none"/>
      </g>
      <path id="Trazado_33" data-name="Trazado 33" d="M2.584.19A1.7,1.7,0,0,0,4.275-1.5,1.7,1.7,0,0,0,2.584-3.192,1.7,1.7,0,0,0,.893-1.5,1.7,1.7,0,0,0,2.584.19ZM18.468-10.431a3.982,3.982,0,0,0-3.306,1.539,3.616,3.616,0,0,0-3.1-1.539A3.736,3.736,0,0,0,9.006-9.025l-.038-1.216H6.479V0H9.063V-6.023a2.026,2.026,0,0,1,2.09-2.2,2.031,2.031,0,0,1,2.109,2.2V0h2.584V-6.023a2.026,2.026,0,0,1,2.09-2.2,2.031,2.031,0,0,1,2.109,2.2V0h2.584V-6.441A3.857,3.857,0,0,0,18.468-10.431ZM32.851-14.82v6.061a3.9,3.9,0,0,0-3.4-1.672c-2.774,0-4.9,2.147-4.9,5.358,0,3.154,2.128,5.263,4.9,5.263a3.9,3.9,0,0,0,3.439-1.729L32.946,0h2.489V-14.82ZM30.039-2.033a2.79,2.79,0,0,1-2.812-3.078,2.812,2.812,0,0,1,2.812-3.116,2.817,2.817,0,0,1,2.812,3.1A2.807,2.807,0,0,1,30.039-2.033Z" transform="translate(426 298)"/>
    </g>
    <g id="Grupo_34" data-name="Grupo 34" transform="translate(-257 -12)">
      <g id="Rectángulo_21-3" data-name="Rectángulo 21" transform="translate(416 242)" fill="#fff" stroke="#24ffb4" stroke-width="5">
        <rect width="70" height="70" rx="10" stroke="none"/>
        <rect x="2.5" y="2.5" width="65" height="65" rx="7.5" fill="none"/>
      </g>
      <path id="Trazado_36" data-name="Trazado 36" d="M2.584.19A1.7,1.7,0,0,0,4.275-1.5,1.7,1.7,0,0,0,2.584-3.192,1.7,1.7,0,0,0,.893-1.5,1.7,1.7,0,0,0,2.584.19Zm5.263-12.1a1.472,1.472,0,0,0,1.539-1.52,1.487,1.487,0,0,0-1.539-1.539,1.487,1.487,0,0,0-1.539,1.539A1.472,1.472,0,0,0,7.847-11.913ZM5.928,4.37A3.067,3.067,0,0,0,9.177,1.14V-10.241H6.593V.551a1.441,1.441,0,0,1-1.444,1.6A3.022,3.022,0,0,1,4.1,2L3.933,4.047A5.626,5.626,0,0,0,5.928,4.37ZM15.2.19c2.565,0,4.275-1.292,4.275-3.23,0-1.805-1.387-2.6-3.135-3.059l-.855-.247c-.893-.228-1.539-.513-1.539-1.121,0-.589.646-.931,1.577-.931a5.258,5.258,0,0,1,2.6.665l1.083-1.691a6.776,6.776,0,0,0-3.857-1.007c-2.432,0-4.028,1.349-4.028,3.382,0,1.615,1.178,2.28,2.907,2.736l.855.228c1.026.266,1.748.608,1.748,1.235s-.646,1.026-1.6,1.026a5.594,5.594,0,0,1-2.945-.76l-.969,1.558A5.846,5.846,0,0,0,15.2.19Z" transform="translate(426 298)"/>
    </g>
    <g id="Grupo_35" data-name="Grupo 35" transform="translate(-257 -102)">
      <g id="Rectángulo_21-4" data-name="Rectángulo 21" transform="translate(416 242)" fill="#fff" stroke="#24ffb4" stroke-width="5">
        <rect width="70" height="70" rx="10" stroke="none"/>
        <rect x="2.5" y="2.5" width="65" height="65" rx="7.5" fill="none"/>
      </g>
      <path id="Trazado_35" data-name="Trazado 35" d="M2.584.19A1.7,1.7,0,0,0,4.275-1.5,1.7,1.7,0,0,0,2.584-3.192,1.7,1.7,0,0,0,.893-1.5,1.7,1.7,0,0,0,2.584.19Zm8.645,0a5.386,5.386,0,0,0,3.9-1.425l-1.463-1.71a3.022,3.022,0,0,1-2.318.912,2.822,2.822,0,0,1-2.888-3.1,2.828,2.828,0,0,1,2.869-3.1,2.928,2.928,0,0,1,2.014.722L14.8-9.253a5.635,5.635,0,0,0-3.515-1.178c-3.306,0-5.51,2.128-5.51,5.3A5.092,5.092,0,0,0,11.229.19Zm8.949,0c2.565,0,4.275-1.292,4.275-3.23,0-1.805-1.387-2.6-3.135-3.059l-.855-.247c-.893-.228-1.539-.513-1.539-1.121,0-.589.646-.931,1.577-.931a5.258,5.258,0,0,1,2.6.665l1.083-1.691a6.776,6.776,0,0,0-3.857-1.007c-2.432,0-4.028,1.349-4.028,3.382,0,1.615,1.178,2.28,2.907,2.736l.855.228c1.026.266,1.748.608,1.748,1.235s-.646,1.026-1.6,1.026a5.594,5.594,0,0,1-2.945-.76L16.3-1.026A5.846,5.846,0,0,0,20.178.19Zm9.671,0c2.565,0,4.275-1.292,4.275-3.23,0-1.805-1.387-2.6-3.135-3.059l-.855-.247c-.893-.228-1.539-.513-1.539-1.121,0-.589.646-.931,1.577-.931a5.258,5.258,0,0,1,2.6.665l1.083-1.691A6.776,6.776,0,0,0,30-10.431c-2.432,0-4.028,1.349-4.028,3.382,0,1.615,1.178,2.28,2.907,2.736l.855.228c1.026.266,1.748.608,1.748,1.235s-.646,1.026-1.6,1.026a5.594,5.594,0,0,1-2.945-.76l-.969,1.558A5.846,5.846,0,0,0,29.849.19Z" transform="translate(426 298)"/>
    </g>
    <g id="Grupo_36" data-name="Grupo 36" transform="translate(-257 -102)">
      <g id="Rectángulo_22" data-name="Rectángulo 22" transform="translate(416 152)" fill="#fff" stroke="#24ffb4" stroke-width="5">
        <rect width="70" height="70" rx="10" stroke="none"/>
        <rect x="2.5" y="2.5" width="65" height="65" rx="7.5" fill="none"/>
      </g>
      <path id="Trazado_32" data-name="Trazado 32" d="M2.584.19A1.7,1.7,0,0,0,4.275-1.5,1.7,1.7,0,0,0,2.584-3.192,1.7,1.7,0,0,0,.893-1.5,1.7,1.7,0,0,0,2.584.19Zm5.263-12.1a1.472,1.472,0,0,0,1.539-1.52,1.487,1.487,0,0,0-1.539-1.539,1.487,1.487,0,0,0-1.539,1.539A1.472,1.472,0,0,0,7.847-11.913ZM5.928,4.37A3.067,3.067,0,0,0,9.177,1.14V-10.241H6.593V.551a1.441,1.441,0,0,1-1.444,1.6A3.022,3.022,0,0,1,4.1,2L3.933,4.047A5.626,5.626,0,0,0,5.928,4.37Zm11.856-14.8A3.9,3.9,0,0,0,14.345-8.7l-.057-1.539H11.8V4.18h2.584V-1.482A3.9,3.9,0,0,0,17.784.19c2.755,0,4.9-2.147,4.9-5.358C22.686-8.341,20.539-10.431,17.784-10.431Zm-.589,8.4a2.8,2.8,0,0,1-2.812-3.1,2.8,2.8,0,0,1,2.812-3.1,2.8,2.8,0,0,1,2.812,3.078A2.813,2.813,0,0,1,17.195-2.033Zm15.352-8.208L32.49-8.7a3.9,3.9,0,0,0-3.439-1.729c-2.774,0-4.9,2.09-4.9,5.263,0,3.211,2.128,5.358,4.9,5.358a3.9,3.9,0,0,0,3.4-1.672v.494c0,1.9-1.425,3.135-3.553,3.135a6.736,6.736,0,0,1-3.914-1.1l-.57,2.033a7.617,7.617,0,0,0,4.56,1.292c3.648,0,6.061-2.109,6.061-5.339v-9.272ZM29.64-2.033a2.8,2.8,0,0,1-2.812-3.116A2.79,2.79,0,0,1,29.64-8.227a2.806,2.806,0,0,1,2.812,3.1A2.806,2.806,0,0,1,29.64-2.033Z" transform="translate(426 208)"/>
    </g>
    <g id="Grupo_37" data-name="Grupo 37" transform="translate(-366 -57)">
      <g id="Rectángulo_22-2" data-name="Rectángulo 22" transform="translate(416 152)" fill="#fff" stroke="#24ffb4" stroke-width="5">
        <rect width="70" height="70" rx="10" stroke="none"/>
        <rect x="2.5" y="2.5" width="65" height="65" rx="7.5" fill="none"/>
      </g>
      <path id="Trazado_31" data-name="Trazado 31" d="M2.584.19A1.7,1.7,0,0,0,4.275-1.5,1.7,1.7,0,0,0,2.584-3.192,1.7,1.7,0,0,0,.893-1.5,1.7,1.7,0,0,0,2.584.19ZM7.106,4.37c1.976,0,2.85-1.216,3.667-3.192L15.6-10.241H12.787l-2.7,7.22L7.2-10.241H4.37L8.759-.228,8.246.855c-.4.779-.741,1.292-1.577,1.292a1.79,1.79,0,0,1-.817-.171L5.586,4.085A3.871,3.871,0,0,0,7.106,4.37Zm13.623-14.8a6.234,6.234,0,0,0-4.18,1.33l1.121,1.52A3.618,3.618,0,0,1,20.064-8.4c1.558,0,2.47.817,2.47,2.185v.19a12,12,0,0,0-2.261-.228c-2.622,0-4.37,1.292-4.37,3.268,0,1.9,1.425,3.173,3.553,3.173a3.662,3.662,0,0,0,3.116-1.653L22.629,0h2.489V-6.441C25.118-8.854,23.351-10.431,20.729-10.431ZM20.2-1.653c-1.045,0-1.6-.551-1.6-1.387,0-.874.779-1.444,2-1.444a10.218,10.218,0,0,1,1.938.209A2.424,2.424,0,0,1,20.2-1.653Zm19.418-8.778a3.982,3.982,0,0,0-3.306,1.539,3.616,3.616,0,0,0-3.1-1.539,3.736,3.736,0,0,0-3.059,1.406l-.038-1.216H27.626V0H30.21V-6.023a2.026,2.026,0,0,1,2.09-2.2,2.031,2.031,0,0,1,2.109,2.2V0h2.584V-6.023a2.026,2.026,0,0,1,2.09-2.2,2.031,2.031,0,0,1,2.109,2.2V0h2.584V-6.441A3.857,3.857,0,0,0,39.615-10.431ZM46.3,0h2.584V-14.82H46.3Z" transform="translate(426 208)"/>
    </g>
    <g id="Grupo_42" data-name="Grupo 42" transform="translate(-366 33)">
      <g id="Rectángulo_22-3" data-name="Rectángulo 22" transform="translate(416 152)" fill="#fff" stroke="#24ffb4" stroke-width="5">
        <rect width="70" height="70" rx="10" stroke="none"/>
        <rect x="2.5" y="2.5" width="65" height="65" rx="7.5" fill="none"/>
      </g>
      <path id="Trazado_37" data-name="Trazado 37" d="M2.584.19A1.7,1.7,0,0,0,4.275-1.5,1.7,1.7,0,0,0,2.584-3.192,1.7,1.7,0,0,0,.893-1.5,1.7,1.7,0,0,0,2.584.19Zm8.227-2.223A1.4,1.4,0,0,1,9.4-3.572v-4.56h3.021v-2.109H9.4v-3H6.821v3H5.13v2.109H6.821V-3.04A3.022,3.022,0,0,0,9.975.19a6.892,6.892,0,0,0,2.6-.475v-2.09A4.5,4.5,0,0,1,10.811-2.033ZM17.708.19c2.565,0,4.275-1.292,4.275-3.23,0-1.805-1.387-2.6-3.135-3.059l-.855-.247c-.893-.228-1.539-.513-1.539-1.121,0-.589.646-.931,1.577-.931a5.258,5.258,0,0,1,2.6.665l1.083-1.691a6.776,6.776,0,0,0-3.857-1.007c-2.432,0-4.028,1.349-4.028,3.382,0,1.615,1.178,2.28,2.907,2.736l.855.228c1.026.266,1.748.608,1.748,1.235s-.646,1.026-1.6,1.026a5.594,5.594,0,0,1-2.945-.76l-.969,1.558A5.846,5.846,0,0,0,17.708.19Z" transform="translate(426 208)"/>
    </g>
    <path id="Trazado_15" data-name="Trazado 15" d="M1782,2014h4.875c15.079,0,15.036-20,29.25-20H1821" transform="translate(-1553 -1839)" fill="none" stroke="#000" stroke-width="2"/>
    <path id="Trazado_19" data-name="Trazado 19" d="M1782,1994h4.875c15.079,0,15.036,20,29.25,20H1821" transform="translate(-1662 -1763.5)" fill="none" stroke="#000" stroke-width="2"/>
    <path id="Trazado_16" data-name="Trazado 16" d="M1782,1994h4.875c15.079,0,15.036,20,29.25,20H1821" transform="translate(-1553 -1819)" fill="none" stroke="#000" stroke-width="2"/>
    <g id="Grupo_40" data-name="Grupo 40" transform="translate(-132 -87)">
      <path id="Trazado_27" data-name="Trazado 27" d="M1821,2014h-4.875c-15.079,0-15.036-20-29.25-20H1782" transform="translate(-1312 -1752)" fill="none" stroke="#000" stroke-width="2"/>
      <path id="Trazado_28" data-name="Trazado 28" d="M1821,1994h-4.875c-15.079,0-15.036,20-29.25,20H1782" transform="translate(-1312 -1732)" fill="none" stroke="#000" stroke-width="2"/>
    </g>
    <g id="Grupo_45" data-name="Grupo 45" transform="translate(621 155)">
      <path id="Trazado_27-2" data-name="Trazado 27" d="M1782,2014h4.875c15.079,0,15.036-20,29.25-20H1821" transform="translate(-1782 -1994)" fill="none" stroke="#000" stroke-width="2"/>
      <path id="Trazado_28-2" data-name="Trazado 28" d="M1782,1994h4.875c15.079,0,15.036,20,29.25,20H1821" transform="translate(-1782 -1974)" fill="none" stroke="#000" stroke-width="2"/>
    </g>
    <path id="Trazado_18" data-name="Trazado 18" d="M1782,2014h4.875c15.079,0,15.036-40,29.25-40H1821" transform="translate(-1553 -1739)" fill="none" stroke="#000" stroke-width="2"/>
    <path id="Trazado_20" data-name="Trazado 20" d="M1692,1969h148" transform="translate(-1572 -1839)" fill="none" stroke="#000" stroke-width="2"/>
    <path id="Trazado_30" data-name="Trazado 30" d="M1692,1969h148" transform="translate(-1572 -1749)" fill="none" stroke="#000" stroke-width="2"/>
    <rect id="Rectángulo_23" data-name="Rectángulo 23" width="23" height="2" transform="translate(377 174)"/>
    <rect id="Rectángulo_24" data-name="Rectángulo 24" width="23" height="2" transform="translate(598 174)" fill="url(#linear-gradient)"/>
    <g id="Grupo_21" data-name="Grupo 21" transform="translate(-195 -93)">
      <g id="Grupo_17" data-name="Grupo 17" transform="translate(-12 -128)">
        <rect id="Rectángulo_11" data-name="Rectángulo 11" width="100" height="100" rx="10" transform="translate(706.213 324.579) rotate(45)" fill="#24ffb4" opacity="0.1"/>
        <rect id="Rectángulo_10" data-name="Rectángulo 10" width="100" height="100" rx="10" transform="translate(692.071 324.579) rotate(45)" fill="#24ffb4" opacity="0.25"/>
        <rect id="Rectángulo_8" data-name="Rectángulo 8" width="100" height="100" rx="10" transform="translate(677.929 324.579) rotate(45)" fill="#24ffb4" opacity="0.5"/>
        <rect id="Rectángulo_9" data-name="Rectángulo 9" width="100" height="100" rx="10" transform="translate(663.711 324.579) rotate(45)" fill="#24ffb4"/>
        <path id="Trazado_38" data-name="Trazado 38" d="M14.612-8.84v-6.136h15.86v-8.84H14.612V-29.64H32.448v-8.84H3.9V0H32.812V-8.84ZM52.78.52c9.412,0,15.756-4.888,15.756-12.272,0-6.968-6.136-10.66-12.48-12.324l-1.768-.468c-3.432-.884-5.876-1.612-5.876-3.432,0-1.352,1.716-2.184,4.472-2.184a15.781,15.781,0,0,1,9.152,3.016l4.628-7.436A23.885,23.885,0,0,0,52.728-39c-9.256,0-15.392,5.148-15.392,12.792,0,6.6,4.94,9.516,12.168,11.388l1.82.468c3.744.988,6.136,1.716,6.136,3.64C57.46-9,55.744-8.32,52.208-8.32a17.336,17.336,0,0,1-10.3-3.484L37.96-4.628A23.207,23.207,0,0,0,52.78.52Z" transform="translate(628 415)" fill="#fff"/>
        <path id="Trazado_43" data-name="Trazado 43" d="M88.348-8.372c-1.664,0-2.808-1.352-2.808-3.328v-8.424h6.6V-28.6h-6.6v-8.372H75.14V-28.6H70.668v8.476H75.14V-9.516C75.14-3.484,79.092.52,84.916.52A20.77,20.77,0,0,0,92.56-.936v-8.32A10.57,10.57,0,0,1,88.348-8.372ZM109.876-29.12c-5.408,0-9.2,1.144-12.688,3.484l4.368,6.084a10.586,10.586,0,0,1,5.564-1.456c3.068,0,4.836.988,5.2,2.964A25.446,25.446,0,0,0,108-18.408c-7.54,0-12.584,3.8-12.584,9.516C95.42-3.224,99.58.52,105.768.52a9.119,9.119,0,0,0,6.916-3.068l.1,2.548h10.036V-17.94C122.824-24.7,117.572-29.12,109.876-29.12ZM108.784-6.812c-1.924,0-2.6-.884-2.6-2.288,0-1.352,1.248-2.288,3.172-2.288a22.2,22.2,0,0,1,3.068.26C112.372-8.424,110.916-6.812,108.784-6.812ZM142.844.52c4.472,0,8.528-1.3,11.388-4.108l-5.876-6.864a6.151,6.151,0,0,1-5.148,2.08c-3.38,0-5.512-2.392-5.512-5.928,0-3.588,2.184-5.928,5.512-5.928a5.706,5.706,0,0,1,4.212,1.612l5.824-7.02A17,17,0,0,0,143-29.12c-9.672,0-16.068,5.928-16.068,14.82S133.276.52,142.844.52ZM188.968,0,175.656-15.08,188.292-28.6h-13.1l-7.332,8.424V-40.56h-10.4V0h10.4V-9.724L175.864,0Z" transform="translate(628 415)"/>
      </g>
    </g>
    <g id="Grupo_38" data-name="Grupo 38" transform="translate(265 -67)">
      <path id="Trazado_22" data-name="Trazado 22" d="M-1383.143-1693h-35.714a7.151,7.151,0,0,1-7.143-7.143v-35.715a7.151,7.151,0,0,1,7.143-7.143h27.143v2.857a12.872,12.872,0,0,0,12.857,12.857H-1376v27.143A7.151,7.151,0,0,1-1383.143-1693Z" transform="translate(1821 1925)"/>
      <path id="Trazado_39" data-name="Trazado 39" d="M1.768.13A1.16,1.16,0,0,0,2.925-1.027,1.16,1.16,0,0,0,1.768-2.184,1.16,1.16,0,0,0,.611-1.027,1.16,1.16,0,0,0,1.768.13ZM8.45-7.137A2.822,2.822,0,0,0,6.2-6.162V-10.14H4.433V0H6.2V-4.121A1.484,1.484,0,0,1,7.839-5.629,1.484,1.484,0,0,1,9.477-4.121V0h1.768V-4.407A2.61,2.61,0,0,0,8.45-7.137Zm7.644,5.746a.955.955,0,0,1-.962-1.053v-3.12H17.2V-7.007H15.132V-9.061H13.364v2.054H12.207v1.443h1.157V-2.08A2.068,2.068,0,0,0,15.522.13,4.716,4.716,0,0,0,17.3-.2v-1.43A3.076,3.076,0,0,1,16.094-1.391Zm10.6-5.746a2.725,2.725,0,0,0-2.262,1.053,2.474,2.474,0,0,0-2.119-1.053,2.556,2.556,0,0,0-2.093.962l-.026-.832h-1.7V0h1.768V-4.121a1.387,1.387,0,0,1,1.43-1.508,1.39,1.39,0,0,1,1.443,1.508V0H24.9V-4.121a1.387,1.387,0,0,1,1.43-1.508,1.39,1.39,0,0,1,1.443,1.508V0h1.768V-4.407A2.639,2.639,0,0,0,26.689-7.137ZM31.265,0h1.768V-10.14H31.265Z" transform="translate(402.143 221.428)" fill="#24ffb4"/>
      <path id="Trazado_21" data-name="Trazado 21" d="M0,0,15.714,15.714H7.143A7.143,7.143,0,0,1,0,8.571Z" transform="translate(429.286 182)" fill="#24ffb4"/>
    </g>
    <g id="Grupo_41" data-name="Grupo 41" transform="translate(335 -67)">
      <path id="Trazado_22-2" data-name="Trazado 22" d="M-1383.143-1693h-35.714a7.151,7.151,0,0,1-7.143-7.143v-35.715a7.151,7.151,0,0,1,7.143-7.143h27.143v2.857a12.872,12.872,0,0,0,12.857,12.857H-1376v27.143A7.151,7.151,0,0,1-1383.143-1693Z" transform="translate(1821 1925)"/>
      <path id="Trazado_40" data-name="Trazado 40" d="M1.768.13A1.16,1.16,0,0,0,2.925-1.027,1.16,1.16,0,0,0,1.768-2.184,1.16,1.16,0,0,0,.611-1.027,1.16,1.16,0,0,0,1.768.13Zm3.6-8.281a1.007,1.007,0,0,0,1.053-1.04,1.017,1.017,0,0,0-1.053-1.053A1.017,1.017,0,0,0,4.316-9.191,1.007,1.007,0,0,0,5.369-8.151ZM4.056,2.99A2.1,2.1,0,0,0,6.279.78V-7.007H4.511V.377a.986.986,0,0,1-.988,1.092,2.067,2.067,0,0,1-.715-.1l-.117,1.4A3.849,3.849,0,0,0,4.056,2.99ZM10.4.13c1.755,0,2.925-.884,2.925-2.21,0-1.235-.949-1.781-2.145-2.093L10.6-4.342c-.611-.156-1.053-.351-1.053-.767s.442-.637,1.079-.637a3.6,3.6,0,0,1,1.781.455l.741-1.157A4.636,4.636,0,0,0,10.5-7.137c-1.664,0-2.756.923-2.756,2.314,0,1.105.806,1.56,1.989,1.872l.585.156c.7.182,1.2.416,1.2.845s-.442.7-1.092.7a3.828,3.828,0,0,1-2.015-.52L7.748-.7A4,4,0,0,0,10.4.13Z" transform="translate(402.143 221.428)" fill="#24ffb4"/>
      <path id="Trazado_21-2" data-name="Trazado 21" d="M0,0,15.714,15.714H7.143A7.143,7.143,0,0,1,0,8.571Z" transform="translate(429.286 182)" fill="#24ffb4"/>
    </g>
    <g id="Grupo_43" data-name="Grupo 43" transform="translate(265 3)">
      <path id="Trazado_22-3" data-name="Trazado 22" d="M-1383.143-1693h-35.714a7.151,7.151,0,0,1-7.143-7.143v-35.715a7.151,7.151,0,0,1,7.143-7.143h27.143v2.857a12.872,12.872,0,0,0,12.857,12.857H-1376v27.143A7.151,7.151,0,0,1-1383.143-1693Z" transform="translate(1821 1925)"/>
      <path id="Trazado_42" data-name="Trazado 42" d="M1.768.13A1.16,1.16,0,0,0,2.925-1.027,1.16,1.16,0,0,0,1.768-2.184,1.16,1.16,0,0,0,.611-1.027,1.16,1.16,0,0,0,1.768.13Zm5.915,0a3.685,3.685,0,0,0,2.665-.975l-1-1.17a2.067,2.067,0,0,1-1.586.624A1.931,1.931,0,0,1,5.785-3.51,1.935,1.935,0,0,1,7.748-5.629a2,2,0,0,1,1.378.494l1-1.2a3.855,3.855,0,0,0-2.405-.806A3.5,3.5,0,0,0,3.952-3.51,3.484,3.484,0,0,0,7.683.13Zm6.123,0c1.755,0,2.925-.884,2.925-2.21,0-1.235-.949-1.781-2.145-2.093L14-4.342c-.611-.156-1.053-.351-1.053-.767s.442-.637,1.079-.637a3.6,3.6,0,0,1,1.781.455l.741-1.157a4.636,4.636,0,0,0-2.639-.689c-1.664,0-2.756.923-2.756,2.314,0,1.105.806,1.56,1.989,1.872l.585.156c.7.182,1.2.416,1.2.845s-.442.7-1.092.7a3.828,3.828,0,0,1-2.015-.52L11.154-.7A4,4,0,0,0,13.806.13Zm6.617,0c1.755,0,2.925-.884,2.925-2.21,0-1.235-.949-1.781-2.145-2.093l-.585-.169c-.611-.156-1.053-.351-1.053-.767s.442-.637,1.079-.637a3.6,3.6,0,0,1,1.781.455l.741-1.157a4.636,4.636,0,0,0-2.639-.689c-1.664,0-2.756.923-2.756,2.314,0,1.105.806,1.56,1.989,1.872l.585.156c.7.182,1.2.416,1.2.845s-.442.7-1.092.7a3.828,3.828,0,0,1-2.015-.52L17.771-.7A4,4,0,0,0,20.423.13Z" transform="translate(402.143 221.428)" fill="#24ffb4"/>
      <path id="Trazado_21-3" data-name="Trazado 21" d="M0,0,15.714,15.714H7.143A7.143,7.143,0,0,1,0,8.571Z" transform="translate(429.286 182)" fill="#24ffb4"/>
    </g>
    <g id="Grupo_44" data-name="Grupo 44" transform="translate(335 3)">
      <path id="Trazado_22-4" data-name="Trazado 22" d="M-1383.143-1693h-35.714a7.151,7.151,0,0,1-7.143-7.143v-35.715a7.151,7.151,0,0,1,7.143-7.143h27.143v2.857a12.872,12.872,0,0,0,12.857,12.857H-1376v27.143A7.151,7.151,0,0,1-1383.143-1693Z" transform="translate(1821 1925)"/>
      <path id="Trazado_41" data-name="Trazado 41" d="M1.768.13A1.16,1.16,0,0,0,2.925-1.027,1.16,1.16,0,0,0,1.768-2.184,1.16,1.16,0,0,0,.611-1.027,1.16,1.16,0,0,0,1.768.13Zm3.6-8.281a1.007,1.007,0,0,0,1.053-1.04,1.017,1.017,0,0,0-1.053-1.053A1.017,1.017,0,0,0,4.316-9.191,1.007,1.007,0,0,0,5.369-8.151ZM4.056,2.99A2.1,2.1,0,0,0,6.279.78V-7.007H4.511V.377a.986.986,0,0,1-.988,1.092,2.067,2.067,0,0,1-.715-.1l-.117,1.4A3.849,3.849,0,0,0,4.056,2.99ZM12.168-7.137A2.667,2.667,0,0,0,9.815-5.954L9.776-7.007h-1.7V2.86H9.841V-1.014A2.667,2.667,0,0,0,12.168.13a3.4,3.4,0,0,0,3.354-3.666A3.355,3.355,0,0,0,12.168-7.137Zm-.4,5.746A1.913,1.913,0,0,1,9.841-3.51a1.913,1.913,0,0,1,1.924-2.119,1.916,1.916,0,0,1,1.924,2.106A1.924,1.924,0,0,1,11.765-1.391Zm10.5-5.616L22.23-5.954a2.667,2.667,0,0,0-2.353-1.183,3.348,3.348,0,0,0-3.354,3.6A3.39,3.39,0,0,0,19.877.13,2.667,2.667,0,0,0,22.2-1.014v.338a2.168,2.168,0,0,1-2.431,2.145A4.609,4.609,0,0,1,17.1.715L16.7,2.106a5.212,5.212,0,0,0,3.12.884c2.5,0,4.147-1.443,4.147-3.653V-7.007ZM20.28-1.391a1.918,1.918,0,0,1-1.924-2.132A1.909,1.909,0,0,1,20.28-5.629,1.92,1.92,0,0,1,22.2-3.51,1.92,1.92,0,0,1,20.28-1.391Z" transform="translate(402.143 221.428)" fill="#24ffb4"/>
      <path id="Trazado_21-4" data-name="Trazado 21" d="M0,0,15.714,15.714H7.143A7.143,7.143,0,0,1,0,8.571Z" transform="translate(429.286 182)" fill="#24ffb4"/>
    </g>
    <path id="Trazado_29" data-name="Trazado 29" d="M1782,1994h4.875c15.079,0,15.036,20,29.25,20H1821" transform="translate(-1553 -1893.5)" fill="none" stroke="#000" stroke-width="2"/>
  </g>
</svg>
