<svg xmlns="http://www.w3.org/2000/svg" xmlns:xlink="http://www.w3.org/1999/xlink" width="960" height="97.898" viewBox="0 0 960 97.898">
  <defs>
    <clipPath id="clip-path">
      <path id="Trazado_2" data-name="Trazado 2" d="M441.565,305.2c6.59,0,12.583-1.863,16.89-5.88a.505.505,0,0,0,.036-.7c-1.352-1.581-6.728-7.86-8.206-9.585a.507.507,0,0,0-.757-.012c-1.775,1.9-4.183,2.722-7.412,2.722-5.117,0-8.344-3.623-8.344-8.978,0-5.434,3.306-8.978,8.344-8.978a8.744,8.744,0,0,1,5.989,2.079.505.505,0,0,0,.727-.051c1.408-1.692,6.736-8.113,8.137-9.8a.507.507,0,0,0-.087-.73,25.777,25.777,0,0,0-15.081-4.949c-14.637,0-24.314,8.967-24.314,22.429S427.085,305.2,441.565,305.2Zm-49.9-44.857c-7.963,0-13.612,1.636-18.762,4.979a.505.505,0,0,0-.135.718c1.12,1.562,4.982,6.945,6.035,8.412a.505.505,0,0,0,.659.145,16.057,16.057,0,0,1,8.027-1.983c4.649,0,7.327,1.5,7.879,4.5a38.571,38.571,0,0,0-6.54-.551c-11.411,0-19.042,5.74-19.042,14.4,0,8.58,6.294,14.242,15.655,14.242a13.922,13.922,0,0,0,9.668-3.791.5.5,0,0,1,.854.335c.034.734.072,1.639.094,2.183a.506.506,0,0,0,.506.486h14.189a.506.506,0,0,0,.506-.506V277.267C411.259,267.03,403.314,260.344,391.665,260.344Zm-32.593,31.407c-2.519,0-4.251-2.048-4.251-5.04V274.458a.506.506,0,0,1,.506-.506h8.984a.506.506,0,0,0,.506-.506V261.638a.506.506,0,0,0-.506-.506h-8.984a.506.506,0,0,1-.506-.506V248.965a.5.5,0,0,0-.506-.506H339.594a.506.506,0,0,0-.506.506v11.661a.5.5,0,0,1-.506.506h-5.756a.5.5,0,0,0-.506.506v11.809a.506.506,0,0,0,.506.506h5.756a.5.5,0,0,1,.506.506v15.561c0,9.126,5.979,15.182,14.79,15.182a31.642,31.642,0,0,0,11.252-2.073.506.506,0,0,0,.318-.47c0-1.681,0-9.1,0-11.5a.507.507,0,0,0-.688-.472A15.85,15.85,0,0,1,359.072,291.751ZM305.236,305.2c14.248,0,23.846-7.393,23.846-18.568,0-10.551-9.283-16.141-18.884-18.661l-2.679-.708c-5.2-1.338-8.9-2.442-8.9-5.2,0-2.047,2.6-3.307,6.774-3.307a23.629,23.629,0,0,1,13.423,4.281.505.505,0,0,0,.707-.156L326,252.48a.506.506,0,0,0-.139-.683,36.18,36.18,0,0,0-20.7-6.408c-14.011,0-23.294,7.787-23.294,19.356,0,10,7.473,14.409,18.41,17.243l2.758.71c5.67,1.5,9.293,2.6,9.293,5.512,0,2.6-2.6,3.622-7.955,3.622a26.106,26.106,0,0,1-15.125-4.948.5.5,0,0,0-.733.17l-5.5,9.992a.506.506,0,0,0,.127.639A35.183,35.183,0,0,0,305.236,305.2Zm205.026-.786a.506.506,0,0,0,.38-.841l-19.1-21.636a.506.506,0,0,1,.009-.681l18.018-19.274a.506.506,0,0,0-.369-.851h-18.44a.5.5,0,0,0-.382.174l-10.06,11.556a.507.507,0,0,1-.888-.333v-29a.506.506,0,0,0-.506-.506H464.2a.508.508,0,0,0-.506.506v60.376a.508.508,0,0,0,.506.506H478.92a.506.506,0,0,0,.506-.506v-12.8a.506.506,0,0,1,.9-.321c2.582,3.135,9.926,12.048,11.074,13.443a.506.506,0,0,0,.391.184Zm-262.3-13.372a.506.506,0,0,1-.506-.506v-8.285a.506.506,0,0,1,.506-.506h23a.506.506,0,0,0,.506-.506v-12.36a.506.506,0,0,0-.506-.506h-23a.506.506,0,0,1-.506-.506v-7.813a.5.5,0,0,1,.506-.506h25.987a.5.5,0,0,0,.506-.506V246.682a.5.5,0,0,0-.506-.506H231.755a.506.506,0,0,0-.506.506v57.227a.508.508,0,0,0,.506.506H274.5a.506.506,0,0,0,.506-.506v-12.36a.506.506,0,0,0-.506-.506Zm142.05,3.07c-2.915,0-3.94-1.34-3.94-3.468,0-2.05,1.891-3.469,4.806-3.469a33.582,33.582,0,0,1,4.649.395C395.447,291.669,393.241,294.113,390.011,294.113Z" transform="translate(-231.249 -243.027)" clip-rule="evenodd"/>
    </clipPath>
  </defs>
  <g id="header" transform="translate(-330.822 -151)">
    <g id="logo" transform="translate(330.822 151)">
      <g id="Grupo_8" data-name="Grupo 8" transform="translate(0)">
        <g id="Grupo_6" data-name="Grupo 6">
          <path id="Trazado_1" data-name="Trazado 1" d="M441.565,305.2c6.59,0,12.583-1.863,16.89-5.88a.505.505,0,0,0,.036-.7c-1.352-1.581-6.728-7.86-8.206-9.585a.507.507,0,0,0-.757-.012c-1.775,1.9-4.183,2.722-7.412,2.722-5.117,0-8.344-3.623-8.344-8.978,0-5.434,3.306-8.978,8.344-8.978a8.744,8.744,0,0,1,5.989,2.079.505.505,0,0,0,.727-.051c1.408-1.692,6.736-8.113,8.137-9.8a.507.507,0,0,0-.087-.73,25.777,25.777,0,0,0-15.081-4.949c-14.637,0-24.314,8.967-24.314,22.429S427.085,305.2,441.565,305.2Zm-49.9-44.857c-7.963,0-13.612,1.636-18.762,4.979a.505.505,0,0,0-.135.718c1.12,1.562,4.982,6.945,6.035,8.412a.505.505,0,0,0,.659.145,16.057,16.057,0,0,1,8.027-1.983c4.649,0,7.327,1.5,7.879,4.5a38.571,38.571,0,0,0-6.54-.551c-11.411,0-19.042,5.74-19.042,14.4,0,8.58,6.294,14.242,15.655,14.242a13.922,13.922,0,0,0,9.668-3.791.5.5,0,0,1,.854.335c.034.734.072,1.639.094,2.183a.506.506,0,0,0,.506.486h14.189a.506.506,0,0,0,.506-.506V277.267C411.259,267.03,403.314,260.344,391.665,260.344Zm-32.593,31.407c-2.519,0-4.251-2.048-4.251-5.04V274.458a.506.506,0,0,1,.506-.506h8.984a.506.506,0,0,0,.506-.506V261.638a.506.506,0,0,0-.506-.506h-8.984a.506.506,0,0,1-.506-.506V248.965a.5.5,0,0,0-.506-.506H339.594a.506.506,0,0,0-.506.506v11.661a.5.5,0,0,1-.506.506h-5.756a.5.5,0,0,0-.506.506v11.809a.506.506,0,0,0,.506.506h5.756a.5.5,0,0,1,.506.506v15.561c0,9.126,5.979,15.182,14.79,15.182a31.642,31.642,0,0,0,11.252-2.073.506.506,0,0,0,.318-.47c0-1.681,0-9.1,0-11.5a.507.507,0,0,0-.688-.472A15.85,15.85,0,0,1,359.072,291.751ZM305.236,305.2c14.248,0,23.846-7.393,23.846-18.568,0-10.551-9.283-16.141-18.884-18.661l-2.679-.708c-5.2-1.338-8.9-2.442-8.9-5.2,0-2.047,2.6-3.307,6.774-3.307a23.629,23.629,0,0,1,13.423,4.281.505.505,0,0,0,.707-.156L326,252.48a.506.506,0,0,0-.139-.683,36.18,36.18,0,0,0-20.7-6.408c-14.011,0-23.294,7.787-23.294,19.356,0,10,7.473,14.409,18.41,17.243l2.758.71c5.67,1.5,9.293,2.6,9.293,5.512,0,2.6-2.6,3.622-7.955,3.622a26.106,26.106,0,0,1-15.125-4.948.5.5,0,0,0-.733.17l-5.5,9.992a.506.506,0,0,0,.127.639A35.183,35.183,0,0,0,305.236,305.2Zm205.026-.786a.506.506,0,0,0,.38-.841l-19.1-21.636a.506.506,0,0,1,.009-.681l18.018-19.274a.506.506,0,0,0-.369-.851h-18.44a.5.5,0,0,0-.382.174l-10.06,11.556a.507.507,0,0,1-.888-.333v-29a.506.506,0,0,0-.506-.506H464.2a.508.508,0,0,0-.506.506v60.376a.508.508,0,0,0,.506.506H478.92a.506.506,0,0,0,.506-.506v-12.8a.506.506,0,0,1,.9-.321c2.582,3.135,9.926,12.048,11.074,13.443a.506.506,0,0,0,.391.184Zm-262.3-13.372a.506.506,0,0,1-.506-.506v-8.285a.506.506,0,0,1,.506-.506h23a.506.506,0,0,0,.506-.506v-12.36a.506.506,0,0,0-.506-.506h-23a.506.506,0,0,1-.506-.506v-7.813a.5.5,0,0,1,.506-.506h25.987a.5.5,0,0,0,.506-.506V246.682a.5.5,0,0,0-.506-.506H231.755a.506.506,0,0,0-.506.506v57.227a.508.508,0,0,0,.506.506H274.5a.506.506,0,0,0,.506-.506v-12.36a.506.506,0,0,0-.506-.506Zm142.05,3.07c-2.915,0-3.94-1.34-3.94-3.468,0-2.05,1.891-3.469,4.806-3.469a33.582,33.582,0,0,1,4.649.395C395.447,291.669,393.241,294.113,390.011,294.113Z" transform="translate(-231.249 -243.027)"/>
          <g id="Grupo_5" data-name="Grupo 5" transform="translate(0)" clip-path="url(#clip-path)">
            <g id="Grupo_4" data-name="Grupo 4" transform="translate(-175.629 -88.457)">
              <g id="Grupo_1" data-name="Grupo 1" transform="matrix(0.981, -0.196, 0.196, 0.981, 4.241, 93.061)">
                <ellipse id="Elipse_1" data-name="Elipse 1" cx="237.265" cy="136.184" rx="237.265" ry="136.184" transform="translate(0 0)" fill="#00e9ff"/>
              </g>
              <g id="Grupo_2" data-name="Grupo 2" transform="matrix(0.966, 0.259, -0.259, 0.966, 59.068, 4.291)">
                <ellipse id="Elipse_2" data-name="Elipse 2" cx="198.807" cy="114.11" rx="198.807" ry="114.11" transform="translate(0 0)" fill="#0400c3"/>
              </g>
              <g id="Grupo_3" data-name="Grupo 3" transform="translate(5.525 45.626)">
                <ellipse id="Elipse_3" data-name="Elipse 3" cx="143.87" cy="82.578" rx="143.87" ry="82.578" transform="translate(0 0)" fill="#ff00b8"/>
              </g>
            </g>
          </g>
        </g>
        <g id="Grupo_7" data-name="Grupo 7" transform="translate(281.947 43.335)">
          <circle id="Elipse_4" data-name="Elipse 4" cx="9.026" cy="9.026" r="9.026" fill="#00e9ff"/>
        </g>
      </g>
    </g>
    <circle id="Elipse_5" data-name="Elipse 5" cx="3.684" cy="3.684" r="3.684" transform="translate(331.15 241.53)"/>
    <circle id="Elipse_5-2" data-name="Elipse 5" cx="3.684" cy="3.684" r="3.684" transform="translate(351.412 241.53)"/>
    <circle id="Elipse_5-3" data-name="Elipse 5" cx="3.684" cy="3.684" r="3.684" transform="translate(371.674 241.53)"/>
    <circle id="Elipse_5-4" data-name="Elipse 5" cx="3.684" cy="3.684" r="3.684" transform="translate(391.935 241.53)"/>
    <circle id="Elipse_5-5" data-name="Elipse 5" cx="3.684" cy="3.684" r="3.684" transform="translate(412.197 241.53)"/>
    <circle id="Elipse_5-6" data-name="Elipse 5" cx="3.684" cy="3.684" r="3.684" transform="translate(432.459 241.53)"/>
    <circle id="Elipse_5-7" data-name="Elipse 5" cx="3.684" cy="3.684" r="3.684" transform="translate(452.721 241.53)"/>
    <circle id="Elipse_5-8" data-name="Elipse 5" cx="3.684" cy="3.684" r="3.684" transform="translate(472.983 241.53)"/>
    <circle id="Elipse_5-9" data-name="Elipse 5" cx="3.684" cy="3.684" r="3.684" transform="translate(493.244 241.53)"/>
    <circle id="Elipse_5-10" data-name="Elipse 5" cx="3.684" cy="3.684" r="3.684" transform="translate(513.506 241.53)"/>
    <circle id="Elipse_5-11" data-name="Elipse 5" cx="3.684" cy="3.684" r="3.684" transform="translate(533.768 241.53)"/>
    <circle id="Elipse_5-12" data-name="Elipse 5" cx="3.684" cy="3.684" r="3.684" transform="translate(554.03 241.53)"/>
    <circle id="Elipse_5-13" data-name="Elipse 5" cx="3.684" cy="3.684" r="3.684" transform="translate(574.292 241.53)"/>
    <circle id="Elipse_5-14" data-name="Elipse 5" cx="3.684" cy="3.684" r="3.684" transform="translate(594.553 241.53)"/>
    <circle id="Elipse_5-15" data-name="Elipse 5" cx="3.684" cy="3.684" r="3.684" transform="translate(614.815 241.53)"/>
    <circle id="Elipse_5-16" data-name="Elipse 5" cx="3.684" cy="3.684" r="3.684" transform="translate(635.077 241.53)"/>
    <circle id="Elipse_5-17" data-name="Elipse 5" cx="3.684" cy="3.684" r="3.684" transform="translate(655.339 241.53)"/>
    <circle id="Elipse_5-18" data-name="Elipse 5" cx="3.684" cy="3.684" r="3.684" transform="translate(675.6 241.53)"/>
    <circle id="Elipse_5-19" data-name="Elipse 5" cx="3.684" cy="3.684" r="3.684" transform="translate(695.862 241.53)"/>
    <circle id="Elipse_5-20" data-name="Elipse 5" cx="3.684" cy="3.684" r="3.684" transform="translate(716.124 241.53)"/>
    <circle id="Elipse_5-21" data-name="Elipse 5" cx="3.684" cy="3.684" r="3.684" transform="translate(736.386 241.53)"/>
    <circle id="Elipse_5-22" data-name="Elipse 5" cx="3.684" cy="3.684" r="3.684" transform="translate(756.648 241.53)"/>
    <circle id="Elipse_5-23" data-name="Elipse 5" cx="3.684" cy="3.684" r="3.684" transform="translate(776.909 241.53)"/>
    <circle id="Elipse_5-24" data-name="Elipse 5" cx="3.684" cy="3.684" r="3.684" transform="translate(797.171 241.53)"/>
    <circle id="Elipse_5-25" data-name="Elipse 5" cx="3.684" cy="3.684" r="3.684" transform="translate(817.433 241.53)"/>
    <circle id="Elipse_5-26" data-name="Elipse 5" cx="3.684" cy="3.684" r="3.684" transform="translate(837.695 241.53)"/>
    <circle id="Elipse_5-27" data-name="Elipse 5" cx="3.684" cy="3.684" r="3.684" transform="translate(857.956 241.53)"/>
    <circle id="Elipse_5-28" data-name="Elipse 5" cx="3.684" cy="3.684" r="3.684" transform="translate(878.218 241.53)"/>
    <circle id="Elipse_5-29" data-name="Elipse 5" cx="3.684" cy="3.684" r="3.684" transform="translate(898.48 241.53)"/>
    <circle id="Elipse_5-30" data-name="Elipse 5" cx="3.684" cy="3.684" r="3.684" transform="translate(918.742 241.53)"/>
    <circle id="Elipse_5-31" data-name="Elipse 5" cx="3.684" cy="3.684" r="3.684" transform="translate(939.004 241.53)"/>
    <circle id="Elipse_5-32" data-name="Elipse 5" cx="3.684" cy="3.684" r="3.684" transform="translate(959.265 241.53)"/>
    <circle id="Elipse_5-33" data-name="Elipse 5" cx="3.684" cy="3.684" r="3.684" transform="translate(979.527 241.53)"/>
    <circle id="Elipse_5-34" data-name="Elipse 5" cx="3.684" cy="3.684" r="3.684" transform="translate(999.789 241.53)"/>
    <circle id="Elipse_5-35" data-name="Elipse 5" cx="3.684" cy="3.684" r="3.684" transform="translate(1020.051 241.53)"/>
    <circle id="Elipse_5-36" data-name="Elipse 5" cx="3.684" cy="3.684" r="3.684" transform="translate(1040.312 241.53)"/>
    <circle id="Elipse_5-37" data-name="Elipse 5" cx="3.684" cy="3.684" r="3.684" transform="translate(1060.574 241.53)"/>
    <circle id="Elipse_5-38" data-name="Elipse 5" cx="3.684" cy="3.684" r="3.684" transform="translate(1080.836 241.53)"/>
    <circle id="Elipse_5-39" data-name="Elipse 5" cx="3.684" cy="3.684" r="3.684" transform="translate(1101.098 241.53)"/>
    <circle id="Elipse_5-40" data-name="Elipse 5" cx="3.684" cy="3.684" r="3.684" transform="translate(1121.359 241.53)"/>
    <circle id="Elipse_5-41" data-name="Elipse 5" cx="3.684" cy="3.684" r="3.684" transform="translate(1141.621 241.53)"/>
    <circle id="Elipse_5-42" data-name="Elipse 5" cx="3.684" cy="3.684" r="3.684" transform="translate(1161.883 241.53)"/>
    <circle id="Elipse_5-43" data-name="Elipse 5" cx="3.684" cy="3.684" r="3.684" transform="translate(1182.145 241.53)"/>
    <circle id="Elipse_5-44" data-name="Elipse 5" cx="3.684" cy="3.684" r="3.684" transform="translate(1202.407 241.53)"/>
    <circle id="Elipse_5-45" data-name="Elipse 5" cx="3.684" cy="3.684" r="3.684" transform="translate(1222.668 241.53)"/>
    <circle id="Elipse_5-46" data-name="Elipse 5" cx="3.684" cy="3.684" r="3.684" transform="translate(1242.93 241.53)"/>
    <circle id="Elipse_5-47" data-name="Elipse 5" cx="3.684" cy="3.684" r="3.684" transform="translate(1263.192 241.53)"/>
    <circle id="Elipse_5-48" data-name="Elipse 5" cx="3.684" cy="3.684" r="3.684" transform="translate(1283.454 241.53)"/>
  </g>
</svg>
