<svg xmlns="http://www.w3.org/2000/svg" width="223.968" height="141.421" viewBox="0 0 223.968 141.421">
  <g id="logo" transform="translate(-581 -196.579)">
    <rect id="Rectángulo_11" data-name="Rectángulo 11" width="100" height="100" rx="10" transform="translate(694.213 196.579) rotate(45)" fill="#24ffb4" opacity="0.1"/>
    <rect id="Rectángulo_10" data-name="Rectángulo 10" width="100" height="100" rx="10" transform="translate(680.071 196.579) rotate(45)" fill="#24ffb4" opacity="0.25"/>
    <rect id="Rectángulo_8" data-name="Rectángulo 8" width="100" height="100" rx="10" transform="translate(665.929 196.579) rotate(45)" fill="#24ffb4" opacity="0.5"/>
    <rect id="Rectángulo_9" data-name="Rectángulo 9" width="100" height="100" rx="10" transform="translate(651.711 196.579) rotate(45)" fill="#24ffb4"/>
    <path id="Trazado_38" data-name="Trazado 38" d="M14.612-8.84v-6.136h15.86v-8.84H14.612V-29.64H32.448v-8.84H3.9V0H32.812V-8.84ZM52.78.52c9.412,0,15.756-4.888,15.756-12.272,0-6.968-6.136-10.66-12.48-12.324l-1.768-.468c-3.432-.884-5.876-1.612-5.876-3.432,0-1.352,1.716-2.184,4.472-2.184a15.781,15.781,0,0,1,9.152,3.016l4.628-7.436A23.885,23.885,0,0,0,52.728-39c-9.256,0-15.392,5.148-15.392,12.792,0,6.6,4.94,9.516,12.168,11.388l1.82.468c3.744.988,6.136,1.716,6.136,3.64C57.46-9,55.744-8.32,52.208-8.32a17.336,17.336,0,0,1-10.3-3.484L37.96-4.628A23.207,23.207,0,0,0,52.78.52Z" transform="translate(616 287)" fill="#fff"/>
    <path id="Trazado_43" data-name="Trazado 43" d="M88.348-8.372c-1.664,0-2.808-1.352-2.808-3.328v-8.424h6.6V-28.6h-6.6v-8.372H75.14V-28.6H70.668v8.476H75.14V-9.516C75.14-3.484,79.092.52,84.916.52A20.77,20.77,0,0,0,92.56-.936v-8.32A10.57,10.57,0,0,1,88.348-8.372ZM109.876-29.12c-5.408,0-9.2,1.144-12.688,3.484l4.368,6.084a10.586,10.586,0,0,1,5.564-1.456c3.068,0,4.836.988,5.2,2.964A25.446,25.446,0,0,0,108-18.408c-7.54,0-12.584,3.8-12.584,9.516C95.42-3.224,99.58.52,105.768.52a9.119,9.119,0,0,0,6.916-3.068l.1,2.548h10.036V-17.94C122.824-24.7,117.572-29.12,109.876-29.12ZM108.784-6.812c-1.924,0-2.6-.884-2.6-2.288,0-1.352,1.248-2.288,3.172-2.288a22.2,22.2,0,0,1,3.068.26C112.372-8.424,110.916-6.812,108.784-6.812ZM142.844.52c4.472,0,8.528-1.3,11.388-4.108l-5.876-6.864a6.151,6.151,0,0,1-5.148,2.08c-3.38,0-5.512-2.392-5.512-5.928,0-3.588,2.184-5.928,5.512-5.928a5.706,5.706,0,0,1,4.212,1.612l5.824-7.02A17,17,0,0,0,143-29.12c-9.672,0-16.068,5.928-16.068,14.82S133.276.52,142.844.52ZM188.968,0,175.656-15.08,188.292-28.6h-13.1l-7.332,8.424V-40.56h-10.4V0h10.4V-9.724L175.864,0Z" transform="translate(616 287)"/>
  </g>
</svg>
