<?xml version="1.0" encoding="UTF-8" standalone="no"?>
<!DOCTYPE svg PUBLIC "-//W3C//DTD SVG 1.1//EN" "http://www.w3.org/Graphics/SVG/1.1/DTD/svg11.dtd">
<svg width="100%" height="100%" viewBox="0 0 297 62" version="1.1" xmlns="http://www.w3.org/2000/svg" xmlns:xlink="http://www.w3.org/1999/xlink" xml:space="preserve" xmlns:serif="http://www.serif.com/" style="fill-rule:evenodd;clip-rule:evenodd;stroke-linejoin:round;stroke-miterlimit:2;">
    <g transform="matrix(1,0,0,1,-768.945,-243.027)">
        <g>
            <g transform="matrix(1,0,0,1,537.696,7.81597e-14)">
                <path d="M439.026,304.451C445.536,304.451 451.457,302.61 455.712,298.642C455.905,298.459 455.921,298.157 455.748,297.955C454.412,296.393 449.101,290.19 447.641,288.486C447.548,288.378 447.413,288.314 447.27,288.312C447.127,288.309 446.99,288.368 446.893,288.474C445.139,290.352 442.76,291.163 439.57,291.163C434.515,291.163 431.327,287.584 431.327,282.293C431.327,276.925 434.593,273.423 439.57,273.423C442.195,273.423 444.109,274.265 445.487,275.477C445.587,275.568 445.721,275.615 445.856,275.605C445.992,275.596 446.118,275.531 446.205,275.427C447.596,273.755 452.86,267.412 454.244,265.745C454.332,265.64 454.372,265.503 454.356,265.366C454.34,265.23 454.268,265.106 454.158,265.024C450.161,262.092 444.891,260.135 439.259,260.135C424.799,260.135 415.239,268.994 415.239,282.293C415.239,295.593 424.721,304.451 439.026,304.451ZM389.729,260.135C381.862,260.135 376.281,261.751 371.193,265.054C371.078,265.128 371,265.246 370.975,265.38C370.95,265.514 370.98,265.652 371.06,265.763C372.166,267.306 375.982,272.624 377.022,274.073C377.171,274.28 377.451,274.341 377.673,274.216C380.055,272.888 382.653,272.257 385.603,272.257C390.196,272.257 392.842,273.738 393.387,276.699C391.13,276.31 388.95,276.155 386.926,276.155C375.653,276.155 368.114,281.826 368.114,290.381C368.114,298.857 374.332,304.451 383.58,304.451C387.094,304.451 390.546,303.184 393.131,300.706C393.27,300.568 393.478,300.525 393.661,300.596C393.844,300.668 393.967,300.841 393.975,301.037C394.009,301.762 394.046,302.656 394.068,303.194C394.079,303.462 394.299,303.674 394.568,303.674C396.816,303.674 406.295,303.674 408.586,303.674C408.863,303.674 409.086,303.45 409.086,303.174L409.086,276.854C409.086,266.74 401.237,260.135 389.729,260.135ZM357.529,291.163C355.04,291.163 353.329,289.14 353.329,286.184L353.329,274.079C353.329,273.803 353.553,273.579 353.829,273.579C355.52,273.579 361.014,273.579 362.705,273.579C362.838,273.579 362.965,273.526 363.059,273.432C363.153,273.339 363.205,273.211 363.205,273.079C363.205,271.05 363.205,263.442 363.205,261.413C363.205,261.137 362.982,260.913 362.705,260.913C361.014,260.913 355.52,260.913 353.829,260.913C353.553,260.913 353.329,260.689 353.329,260.413C353.329,258.401 353.329,250.905 353.329,248.893C353.329,248.76 353.277,248.633 353.183,248.539C353.089,248.446 352.962,248.393 352.829,248.393C350.488,248.393 340.627,248.393 338.286,248.393C338.154,248.393 338.027,248.446 337.933,248.539C337.839,248.633 337.786,248.76 337.786,248.893C337.786,250.905 337.786,258.401 337.786,260.413C337.786,260.546 337.734,260.673 337.64,260.767C337.546,260.86 337.419,260.913 337.286,260.913C336.046,260.913 332.839,260.913 331.599,260.913C331.466,260.913 331.339,260.966 331.245,261.059C331.151,261.153 331.099,261.28 331.099,261.413C331.099,263.442 331.099,271.05 331.099,273.079C331.099,273.211 331.151,273.339 331.245,273.432C331.339,273.526 331.466,273.579 331.599,273.579C332.839,273.579 336.046,273.579 337.286,273.579C337.419,273.579 337.546,273.632 337.64,273.725C337.734,273.819 337.786,273.946 337.786,274.079L337.786,289.452C337.786,298.468 343.693,304.451 352.397,304.451C355.945,304.451 360.006,303.792 363.513,302.403C363.703,302.327 363.827,302.143 363.827,301.939C363.828,300.278 363.828,292.948 363.828,290.581C363.827,290.416 363.746,290.262 363.61,290.169C363.474,290.076 363.302,290.056 363.148,290.115C361.213,290.851 359.339,291.163 357.529,291.163ZM304.343,304.451C318.419,304.451 327.901,297.147 327.901,286.107C327.901,275.683 318.73,270.161 309.245,267.671L306.598,266.971C301.462,265.649 297.806,264.559 297.806,261.837C297.806,259.815 300.374,258.57 304.498,258.57C309.246,258.57 313.407,259.956 317.759,262.799C317.872,262.873 318.009,262.898 318.141,262.869C318.272,262.84 318.386,262.759 318.457,262.645C319.571,260.855 323.782,254.088 324.853,252.366C324.994,252.14 324.934,251.843 324.716,251.691C318.283,247.227 311.054,245.36 304.265,245.36C290.423,245.36 281.252,253.053 281.252,264.482C281.252,274.361 288.635,278.717 299.44,281.517L302.165,282.218C307.767,283.696 311.346,284.785 311.346,287.663C311.346,290.23 308.778,291.241 303.487,291.241C298.949,291.241 293.756,289.992 288.545,286.353C288.429,286.271 288.284,286.243 288.146,286.275C288.008,286.307 287.89,286.396 287.821,286.521C286.811,288.355 283.271,294.784 282.386,296.392C282.269,296.604 282.321,296.871 282.511,297.023C288.451,301.754 296.022,304.451 304.343,304.451ZM506.894,303.674C507.091,303.674 507.269,303.558 507.35,303.379C507.431,303.2 507.399,302.99 507.269,302.843C503.97,299.106 490.576,283.937 488.396,281.468C488.225,281.275 488.229,280.984 488.405,280.795C490.529,278.523 502.94,265.247 506.205,261.754C506.341,261.609 506.378,261.397 506.298,261.214C506.219,261.031 506.039,260.913 505.84,260.913C501.953,260.913 489.464,260.913 487.623,260.913C487.478,260.913 487.34,260.976 487.246,261.085C486.178,262.311 479.691,269.763 477.307,272.501C477.17,272.658 476.95,272.714 476.755,272.64C476.56,272.567 476.43,272.381 476.43,272.172C476.43,266.805 476.43,246.938 476.43,243.527C476.43,243.395 476.378,243.267 476.284,243.174C476.19,243.08 476.063,243.027 475.93,243.027C473.589,243.027 463.728,243.027 461.387,243.027C461.254,243.027 461.127,243.08 461.034,243.174C460.94,243.267 460.887,243.395 460.887,243.527C460.887,249.002 460.887,297.699 460.887,303.174C460.887,303.306 460.94,303.433 461.034,303.527C461.127,303.621 461.254,303.674 461.387,303.674C463.728,303.674 473.589,303.674 475.93,303.674C476.206,303.674 476.43,303.45 476.43,303.174C476.43,301.168 476.43,293.666 476.43,290.528C476.43,290.317 476.563,290.129 476.761,290.058C476.96,289.987 477.182,290.048 477.316,290.211C479.867,293.308 487.122,302.114 488.256,303.492C488.351,303.607 488.492,303.674 488.642,303.674C490.519,303.674 503.064,303.674 506.894,303.674ZM247.759,290.463C247.483,290.463 247.259,290.24 247.259,289.963C247.259,288.363 247.259,283.378 247.259,281.778C247.259,281.501 247.483,281.278 247.759,281.278C250.855,281.278 267.381,281.278 270.477,281.278C270.753,281.278 270.977,281.054 270.977,280.778C270.977,278.687 270.977,270.658 270.977,268.567C270.977,268.291 270.753,268.067 270.477,268.067C267.381,268.067 250.855,268.067 247.759,268.067C247.483,268.067 247.259,267.843 247.259,267.567C247.259,266.03 247.259,261.385 247.259,259.848C247.259,259.715 247.312,259.588 247.405,259.494C247.499,259.401 247.626,259.348 247.759,259.348C251.095,259.348 270.096,259.348 273.432,259.348C273.565,259.348 273.692,259.295 273.786,259.202C273.879,259.108 273.932,258.981 273.932,258.848C273.932,256.757 273.932,248.728 273.932,246.638C273.932,246.505 273.879,246.378 273.786,246.284C273.692,246.191 273.565,246.138 273.432,246.138C268.98,246.138 236.201,246.138 231.749,246.138C231.617,246.138 231.489,246.191 231.396,246.284C231.302,246.378 231.249,246.505 231.249,246.638C231.249,251.948 231.249,297.864 231.249,303.174C231.249,303.306 231.302,303.433 231.396,303.527C231.489,303.621 231.617,303.674 231.749,303.674L273.976,303.674C274.109,303.674 274.236,303.621 274.33,303.527C274.424,303.433 274.476,303.306 274.476,303.174C274.476,301.083 274.476,293.054 274.476,290.963C274.476,290.687 274.253,290.463 273.976,290.463C270.598,290.463 251.138,290.463 247.759,290.463ZM388.094,293.496C385.214,293.496 384.202,292.172 384.202,290.07C384.202,288.045 386.07,286.643 388.95,286.643C390.351,286.643 391.908,286.799 393.543,287.033C393.465,291.082 391.285,293.496 388.094,293.496Z" style="fill-rule:nonzero;"/>
                <clipPath id="_clip1">
                    <path d="M439.026,304.451C445.536,304.451 451.457,302.61 455.712,298.642C455.905,298.459 455.921,298.157 455.748,297.955C454.412,296.393 449.101,290.19 447.641,288.486C447.548,288.378 447.413,288.314 447.27,288.312C447.127,288.309 446.99,288.368 446.893,288.474C445.139,290.352 442.76,291.163 439.57,291.163C434.515,291.163 431.327,287.584 431.327,282.293C431.327,276.925 434.593,273.423 439.57,273.423C442.195,273.423 444.109,274.265 445.487,275.477C445.587,275.568 445.721,275.615 445.856,275.605C445.992,275.596 446.118,275.531 446.205,275.427C447.596,273.755 452.86,267.412 454.244,265.745C454.332,265.64 454.372,265.503 454.356,265.366C454.34,265.23 454.268,265.106 454.158,265.024C450.161,262.092 444.891,260.135 439.259,260.135C424.799,260.135 415.239,268.994 415.239,282.293C415.239,295.593 424.721,304.451 439.026,304.451ZM389.729,260.135C381.862,260.135 376.281,261.751 371.193,265.054C371.078,265.128 371,265.246 370.975,265.38C370.95,265.514 370.98,265.652 371.06,265.763C372.166,267.306 375.982,272.624 377.022,274.073C377.171,274.28 377.451,274.341 377.673,274.216C380.055,272.888 382.653,272.257 385.603,272.257C390.196,272.257 392.842,273.738 393.387,276.699C391.13,276.31 388.95,276.155 386.926,276.155C375.653,276.155 368.114,281.826 368.114,290.381C368.114,298.857 374.332,304.451 383.58,304.451C387.094,304.451 390.546,303.184 393.131,300.706C393.27,300.568 393.478,300.525 393.661,300.596C393.844,300.668 393.967,300.841 393.975,301.037C394.009,301.762 394.046,302.656 394.068,303.194C394.079,303.462 394.299,303.674 394.568,303.674C396.816,303.674 406.295,303.674 408.586,303.674C408.863,303.674 409.086,303.45 409.086,303.174L409.086,276.854C409.086,266.74 401.237,260.135 389.729,260.135ZM357.529,291.163C355.04,291.163 353.329,289.14 353.329,286.184L353.329,274.079C353.329,273.803 353.553,273.579 353.829,273.579C355.52,273.579 361.014,273.579 362.705,273.579C362.838,273.579 362.965,273.526 363.059,273.432C363.153,273.339 363.205,273.211 363.205,273.079C363.205,271.05 363.205,263.442 363.205,261.413C363.205,261.137 362.982,260.913 362.705,260.913C361.014,260.913 355.52,260.913 353.829,260.913C353.553,260.913 353.329,260.689 353.329,260.413C353.329,258.401 353.329,250.905 353.329,248.893C353.329,248.76 353.277,248.633 353.183,248.539C353.089,248.446 352.962,248.393 352.829,248.393C350.488,248.393 340.627,248.393 338.286,248.393C338.154,248.393 338.027,248.446 337.933,248.539C337.839,248.633 337.786,248.76 337.786,248.893C337.786,250.905 337.786,258.401 337.786,260.413C337.786,260.546 337.734,260.673 337.64,260.767C337.546,260.86 337.419,260.913 337.286,260.913C336.046,260.913 332.839,260.913 331.599,260.913C331.466,260.913 331.339,260.966 331.245,261.059C331.151,261.153 331.099,261.28 331.099,261.413C331.099,263.442 331.099,271.05 331.099,273.079C331.099,273.211 331.151,273.339 331.245,273.432C331.339,273.526 331.466,273.579 331.599,273.579C332.839,273.579 336.046,273.579 337.286,273.579C337.419,273.579 337.546,273.632 337.64,273.725C337.734,273.819 337.786,273.946 337.786,274.079L337.786,289.452C337.786,298.468 343.693,304.451 352.397,304.451C355.945,304.451 360.006,303.792 363.513,302.403C363.703,302.327 363.827,302.143 363.827,301.939C363.828,300.278 363.828,292.948 363.828,290.581C363.827,290.416 363.746,290.262 363.61,290.169C363.474,290.076 363.302,290.056 363.148,290.115C361.213,290.851 359.339,291.163 357.529,291.163ZM304.343,304.451C318.419,304.451 327.901,297.147 327.901,286.107C327.901,275.683 318.73,270.161 309.245,267.671L306.598,266.971C301.462,265.649 297.806,264.559 297.806,261.837C297.806,259.815 300.374,258.57 304.498,258.57C309.246,258.57 313.407,259.956 317.759,262.799C317.872,262.873 318.009,262.898 318.141,262.869C318.272,262.84 318.386,262.759 318.457,262.645C319.571,260.855 323.782,254.088 324.853,252.366C324.994,252.14 324.934,251.843 324.716,251.691C318.283,247.227 311.054,245.36 304.265,245.36C290.423,245.36 281.252,253.053 281.252,264.482C281.252,274.361 288.635,278.717 299.44,281.517L302.165,282.218C307.767,283.696 311.346,284.785 311.346,287.663C311.346,290.23 308.778,291.241 303.487,291.241C298.949,291.241 293.756,289.992 288.545,286.353C288.429,286.271 288.284,286.243 288.146,286.275C288.008,286.307 287.89,286.396 287.821,286.521C286.811,288.355 283.271,294.784 282.386,296.392C282.269,296.604 282.321,296.871 282.511,297.023C288.451,301.754 296.022,304.451 304.343,304.451ZM506.894,303.674C507.091,303.674 507.269,303.558 507.35,303.379C507.431,303.2 507.399,302.99 507.269,302.843C503.97,299.106 490.576,283.937 488.396,281.468C488.225,281.275 488.229,280.984 488.405,280.795C490.529,278.523 502.94,265.247 506.205,261.754C506.341,261.609 506.378,261.397 506.298,261.214C506.219,261.031 506.039,260.913 505.84,260.913C501.953,260.913 489.464,260.913 487.623,260.913C487.478,260.913 487.34,260.976 487.246,261.085C486.178,262.311 479.691,269.763 477.307,272.501C477.17,272.658 476.95,272.714 476.755,272.64C476.56,272.567 476.43,272.381 476.43,272.172C476.43,266.805 476.43,246.938 476.43,243.527C476.43,243.395 476.378,243.267 476.284,243.174C476.19,243.08 476.063,243.027 475.93,243.027C473.589,243.027 463.728,243.027 461.387,243.027C461.254,243.027 461.127,243.08 461.034,243.174C460.94,243.267 460.887,243.395 460.887,243.527C460.887,249.002 460.887,297.699 460.887,303.174C460.887,303.306 460.94,303.433 461.034,303.527C461.127,303.621 461.254,303.674 461.387,303.674C463.728,303.674 473.589,303.674 475.93,303.674C476.206,303.674 476.43,303.45 476.43,303.174C476.43,301.168 476.43,293.666 476.43,290.528C476.43,290.317 476.563,290.129 476.761,290.058C476.96,289.987 477.182,290.048 477.316,290.211C479.867,293.308 487.122,302.114 488.256,303.492C488.351,303.607 488.492,303.674 488.642,303.674C490.519,303.674 503.064,303.674 506.894,303.674ZM247.759,290.463C247.483,290.463 247.259,290.24 247.259,289.963C247.259,288.363 247.259,283.378 247.259,281.778C247.259,281.501 247.483,281.278 247.759,281.278C250.855,281.278 267.381,281.278 270.477,281.278C270.753,281.278 270.977,281.054 270.977,280.778C270.977,278.687 270.977,270.658 270.977,268.567C270.977,268.291 270.753,268.067 270.477,268.067C267.381,268.067 250.855,268.067 247.759,268.067C247.483,268.067 247.259,267.843 247.259,267.567C247.259,266.03 247.259,261.385 247.259,259.848C247.259,259.715 247.312,259.588 247.405,259.494C247.499,259.401 247.626,259.348 247.759,259.348C251.095,259.348 270.096,259.348 273.432,259.348C273.565,259.348 273.692,259.295 273.786,259.202C273.879,259.108 273.932,258.981 273.932,258.848C273.932,256.757 273.932,248.728 273.932,246.638C273.932,246.505 273.879,246.378 273.786,246.284C273.692,246.191 273.565,246.138 273.432,246.138C268.98,246.138 236.201,246.138 231.749,246.138C231.617,246.138 231.489,246.191 231.396,246.284C231.302,246.378 231.249,246.505 231.249,246.638C231.249,251.948 231.249,297.864 231.249,303.174C231.249,303.306 231.302,303.433 231.396,303.527C231.489,303.621 231.617,303.674 231.749,303.674L273.976,303.674C274.109,303.674 274.236,303.621 274.33,303.527C274.424,303.433 274.476,303.306 274.476,303.174C274.476,301.083 274.476,293.054 274.476,290.963C274.476,290.687 274.253,290.463 273.976,290.463C270.598,290.463 251.138,290.463 247.759,290.463ZM388.094,293.496C385.214,293.496 384.202,292.172 384.202,290.07C384.202,288.045 386.07,286.643 388.95,286.643C390.351,286.643 391.908,286.799 393.543,287.033C393.465,291.082 391.285,293.496 388.094,293.496Z" clip-rule="nonzero"/>
                </clipPath>
                <g clip-path="url(#_clip1)">
                    <g transform="matrix(0.230526,0,0,0.230526,172.28,219.867)">
                        <g transform="matrix(7.01499,-1.40297,1.11547,5.5775,-1865.74,-867.777)">
                            <ellipse cx="305.171" cy="320.752" rx="142.131" ry="102.605" style="fill:rgb(0,233,255);"/>
                        </g>
                        <g transform="matrix(5.79007,1.55144,-1.23353,4.60358,-918.645,-1517.43)">
                            <ellipse cx="305.171" cy="320.752" rx="142.131" ry="102.605" style="fill:rgb(4,0,195);"/>
                        </g>
                        <g transform="matrix(4.33791,5.55112e-16,8.88178e-16,3.449,-1180.43,-835.472)">
                            <ellipse cx="305.171" cy="320.752" rx="142.131" ry="102.605" style="fill:rgb(255,0,184);"/>
                        </g>
                    </g>
                </g>
            </g>
            <g transform="matrix(0.834191,0,0,0.834191,619.297,50.3517)">
                <circle cx="523.992" cy="292.984" r="10.69" style="fill:rgb(0,233,255);"/>
            </g>
        </g>
    </g>
</svg>
