<svg xmlns="http://www.w3.org/2000/svg" xmlns:xlink="http://www.w3.org/1999/xlink" width="111.24" height="23.128" viewBox="0 0 111.24 23.128"><defs><linearGradient id="a" x1="0.984" y1="1" x2="0" y2="0.056" gradientUnits="objectBoundingBox"><stop offset="0" stop-color="#24ffb4"/><stop offset="1" stop-color="#ef0"/></linearGradient></defs><path d="M21.012-97.935H-.21v4.37H21.012ZM-.21-84.289H17.944v-4.37H-.21Zm0,8.851H20.9v-4.37H-.21ZM24.311-77.97a10.945,10.945,0,0,0,7.863,2.992c3.375,0,6.1-2.531,6.1-5.178,0-2.838-2.186-4.411-4.526-5.1-1.918-.652-3.72-.882-3.529-2.109.23-1.764,2.416-1.956,5.638.345l2.225-3.49a11.068,11.068,0,0,0-6.6-1.956c-3.145,0-5.868,1.994-5.868,5.024,0,3.183,2.225,4.181,5.446,5.178,1.227.384,2.416.767,2.416,1.994,0,2.071-3.682,1.956-6.1-.805Zm24.547-14v-6.137H43.986v6.137H40.534v4.487h3.452v12.043h4.871V-87.482h3.835v-4.487Zm19.369,0L67.843-90.4a8.746,8.746,0,0,0-5.676-2.071,8.725,8.725,0,0,0-8.783,8.745,8.749,8.749,0,0,0,8.783,8.745,8.746,8.746,0,0,0,5.676-2.071v1.611h4.066V-91.969ZM65.81-80.54a4.15,4.15,0,0,1-3.03,1.3,4.3,4.3,0,0,1-3.068-1.3,4.7,4.7,0,0,1-1.266-3.183,4.63,4.63,0,0,1,1.266-3.183,4.3,4.3,0,0,1,3.068-1.3,4.15,4.15,0,0,1,3.03,1.3,4.462,4.462,0,0,1,1.266,3.183A4.527,4.527,0,0,1,65.81-80.54Zm23.856-10.2a9.476,9.476,0,0,0-5.523-1.764,8.961,8.961,0,0,0-9.167,8.745,8.968,8.968,0,0,0,9.167,8.783,9.742,9.742,0,0,0,5.446-1.688L87.442-80.5c-2.877,2.838-7.863.5-7.863-3.183,0-4.142,5.37-5.868,7.863-3.145Zm21.363,15.3-8.17-9.627,6.712-6.9h-6.559L98.1-86.638V-97.967h-5.37v22.528H98.1V-81l1.112-1.151,5.523,6.712Z" transform="translate(0.21 98.106)" fill="url(#a)"/></svg>
