<svg xmlns="http://www.w3.org/2000/svg" height="20px" viewBox="0 0 34 34">
    <path fill="white" d="M17 0C7.611 0 0 7.61 0 17c0 9.391 7.611 17 17 17s17-7.609 17-17c0-9.39-7.611-17-17-17zm8.902 13.957c.008.171.012.343.012.517 0 5.286-4.023 11.383-11.383 11.383-2.26 0-4.362-.662-6.133-1.797.314.037.632.055.955.055a8.028 8.028 0 004.968-1.711 4.004 4.004 0 01-3.736-2.777 4.045 4.045 0 001.805-.071 4.006 4.006 0 01-3.208-3.925v-.049c.541.3 1.157.479 1.813.5a3.998 3.998 0 01-1.779-3.331c0-.731.197-1.42.542-2.011a11.35 11.35 0 008.246 4.18 4 4 0 016.816-3.648 8.095 8.095 0 002.541-.969 4.017 4.017 0 01-1.758 2.211 7.974 7.974 0 002.297-.629 8.15 8.15 0 01-1.998 2.072z"/>
</svg>
